<svg data-name="Layer 1" xmlns="http://www.w3.org/2000/svg" viewBox="0 0 333.79 265.43"><path d="M72.76,165.51C56.49,122.25,75.56,89,102.4,73.75c25.75-14.65,59.4-13.64,86.47,11.73,24.95-19.86,52.56-24.78,81.25-9.8,28.85,15.06,40.18,40.61,37.53,72.09,8.12,3.15,16.09,5.52,23.41,9.2,20.39,10.27,32.11,27.64,36.46,49.47,4.06,20.37-.76,39.62-13.32,56.1-8.54,11.19-19.65,20.09-33.61,24-5,1.4-7,5.54-10.5,8.2-11.21,8.46-24.1,13.09-37.57,15.78s-27.14,4.14-40.71,6.23c-1.33.2-3.05.66-3.77,1.62-8,10.69-19.58,12.12-31.4,10.91-8.21-.83-15.95-3.64-21.48-11.2-1.66-2.27-7.24-1.93-11.07-2.33-21.85-2.27-43.36-5.62-63.12-16.22-3.43-1.84-7.88-1.7-11.8-2.72-28.12-7.33-45.53-25.3-52.1-53.42-5.26-22.5.42-42.57,14.6-60.63C57.48,175.38,64.82,170.15,72.76,165.51Zm247.54,114c5.17-4.63,10-8.2,13.88-12.58,14.32-16.07,19.84-34.82,15.17-56-3-13.4-9.92-24.53-20.46-33.62-8.55-7.37-18.11-12.33-29.12-14.19-3.49-.6-4.38-2.09-3.8-4.85,2.16-10.22-.5-19.69-4-29.12-12.09-32.81-52.35-50.27-85.32-33.92-6,3-11.51,7.14-17.2,10.73-21.66-21.9-49.81-24.61-73.68-12.76a61.75,61.75,0,0,0-28.13,28.54c-4.51,9-7.08,18.86-6.54,28.82.41,7.67,3,15.27,5,22.79.62,2.29.68,3.18-1.42,4.76a143.81,143.81,0,0,0-15.43,13.07C58.72,201.76,54,215.12,53,229.6c-1.14,16.4,4.47,31,14.83,43.54,5,6.12,11,11.56,18.88,14.88l-3.45-13.71c2.7.93,4,1.24,5.1,1.79a47.73,47.73,0,0,0,23.85,4.74c5.22-.32,10.39-1.48,15.61-1.89,10.82-.83,21.12,1,31.13,7.46-12.82-19.21-15.71-41.84-6.94-50.22,1.19,1.34,2.18,3,3.61,3.95,8.72,6,17.67,11.74,26.29,17.9,5,3.56,10,7.3,14.05,11.85,2.82,3.2,3.94,7.9,6.3,12.95,2.6-10.9,8.15-18.83,17.17-23.58,12-6.32,24.12-12.34,33.09-24.06,7,18.77,5.45,35.37-7.31,50.5,11.57-6.51,23.48-8.14,36.26-5.93,10.07,1.74,20.28,2.07,30.09-1.89,2.51-1,5-2.13,7.74-3.31C319.63,276.25,319.86,277.34,320.3,279.55Z" transform="translate(-35.13 -64.22)"/></svg>