<svg width="120" height="70" viewBox="0 0 229.5 145"><defs><radialGradient id="a" cx="1211.42" cy="615.97" r="499.46" gradientTransform="matrix(0.17, -0.01, 0.01, 0.17, -60.85, 31.9)" gradientUnits="userSpaceOnUse"><stop offset="0" stop-color="#efc05a"/><stop offset="0.25" stop-color="#e9d97d"/><stop offset="0.49" stop-color="#ea9c3a"/><stop offset="1"/></radialGradient><radialGradient id="b" cx="1059.3" cy="-1112.48" r="533.5" gradientTransform="matrix(0.17, 0, 0, -0.15, -114.28, -88.81)" xlink:href="#a"/><radialGradient id="c" cx="392.59" cy="-2286.17" r="336.08" gradientTransform="matrix(-0.06, 0.15, -0.14, -0.07, -213.68, -175.51)" gradientUnits="userSpaceOnUse"><stop offset="0.22" stop-color="#7c4a00"/><stop offset="0.44" stop-color="#e9d97d"/><stop offset="0.56" stop-color="#ea9c3a"/><stop offset="1"/></radialGradient></defs><path d="M226.8,121.5v-1.7l-18.8.4v1.6c-.6,3.1-1.5,5.2-2.5,6.3a12.6,12.6,0,0,1-3.7,2.7,23.8,23.8,0,0,1-6.3,1.6,73.4,73.4,0,0,1-8.1.5l-7.6-.2-10.2-.7c-6.8-.6-17.9-2.3-33.2-5.1s-28.5-3.5-39.7-2.4-18.8,3.1-23.5,5.6L62,145a11.9,11.9,0,0,0,3.2-1.8,44.5,44.5,0,0,1,12-6l14.7-4.8a104.4,104.4,0,0,1,51.7-2.2l29.2,6.1,8.7,1.4a79.2,79.2,0,0,0,8.7.7h5.2l3.7-.4,3.8-.6a34.5,34.5,0,0,0,4.2-1.4,26.9,26.9,0,0,0,5.3-2.8c1.8-1.2,5.4-4.5,10.7-10A5.6,5.6,0,0,1,226.8,121.5Z" transform="translate(-0.2)" fill="url(#a)"/><path d="M124.3,72.5,62.3,0,.2,72.5,62.3,145l62-72.5M62.3,4.4l58.2,68.1L62.3,140.6,4,72.5Z" transform="translate(-0.2)" fill="url(#b)"/><path d="M56.1,67.8l5.1,14.5a3.4,3.4,0,0,1,.1,1c0,.9-.2,1.3-.7,1.3h-1v2.1H74.7v-2A5.8,5.8,0,0,1,70,81.5a31.6,31.6,0,0,1-3.7-7.8L51.5,30.8H49L31.8,74.6c-2.6,6.5-5.5,9.9-8.6,10v2.1H42V84.6H39.8a4.8,4.8,0,0,1-3.6-1.3,4.5,4.5,0,0,1-1.3-3.4c0-2.7.9-6.7,2.8-12.1H56.1M38.8,65.2l8.7-22.3,7.7,22.3Z" transform="translate(-0.2)"/><path d="M85.3,69.1H88v-12a43.1,43.1,0,0,0-13.3-2.4,24.8,24.8,0,0,0-13.4,3.7,27.7,27.7,0,0,0-9.6,10.4,31.8,31.8,0,0,0-3.6,15.1,28.9,28.9,0,0,0,2.4,12,20.7,20.7,0,0,0,6.9,8.5,16.5,16.5,0,0,0,9.4,3.1,18.1,18.1,0,0,0,9.2-3l1.4-1c2-1.5,3.7-2.2,5-2.2,3.2,0,4.8,2.3,4.9,6.9h1.8V92a6.9,6.9,0,0,1,1-3.9,2.9,2.9,0,0,1,2.7-1.5v-2H74.7v2H76c4.6,0,6.9,1.9,6.9,5.8a9.2,9.2,0,0,1-3.3,7.1,10.9,10.9,0,0,1-7.9,3q-7.2,0-12.3-6.9T54.3,78.2c0-6.5,1.7-11.7,5-15.4a15.7,15.7,0,0,1,12.1-5.5,14.3,14.3,0,0,1,9.3,3.1A11.8,11.8,0,0,1,85.3,69.1Z" transform="translate(-0.2)" fill="url(#c)"/><path d="M116.1,95.3a9.7,9.7,0,0,0-2.6-7.2,8.8,8.8,0,0,0-6.9-2.8,10.9,10.9,0,0,0-7.9,3.6,11.6,11.6,0,0,0-3.6,8.8,10.4,10.4,0,0,0,2.5,7.2,9.1,9.1,0,0,0,6.9,2.8,11.4,11.4,0,0,0,8-3.5,11.8,11.8,0,0,0,3.6-8.9m-11.5-8.2a6,6,0,0,1,3.7,1.3,11,11,0,0,1,3.3,3.7,12.1,12.1,0,0,1,1.4,5.8,8.6,8.6,0,0,1-1.8,5.6,5.4,5.4,0,0,1-4.3,2.1,7.6,7.6,0,0,1-6.1-3.3,11,11,0,0,1-2.6-7.4,8.8,8.8,0,0,1,1.6-5.5,5.6,5.6,0,0,1,4.8-2.3m108.5,7.2a10,10,0,0,1,2.1-5.5,5,5,0,0,1,4-2.2,2.9,2.9,0,0,1,2.1.8,3.4,3.4,0,0,1,.8,2.1v2.8c-8.5,3.8-12.8,7.4-12.8,10.7a5,5,0,0,0,1.2,3.3,3.9,3.9,0,0,0,3,1.4,6.9,6.9,0,0,0,3.7-1.4,28.1,28.1,0,0,0,4.9-4.3v3.4c0,1.5.6,2.3,2,2.3s3.3-1.2,5.7-3.5v-1.4c-1.6,1.4-2.6,2.1-3.3,2.1s-.9-.3-.9-1V89.5a4.5,4.5,0,0,0-.9-3.2,4.2,4.2,0,0,0-3.2-1c-3.1,0-6.4,1.1-10,3.5v5.5h1.6m-.3,7.2c0-1.5.8-3,2.6-4.4a16.8,16.8,0,0,1,6.9-3c0,3.3-.6,5.9-1.8,7.7s-2.7,2.8-4.5,2.8a3,3,0,0,1-2.3-.9,2.8,2.8,0,0,1-.9-2.2M191.5,87.7v1.1a8,8,0,0,1,2-.5c1,0,1.5.7,1.5,2v12a4.1,4.1,0,0,1-.8,2.8,4.1,4.1,0,0,1-2.7.8V107h11.9v-1.1c-2,0-3.3-.3-4-.9s-1.2-1.8-1.2-3.8a20.2,20.2,0,0,1,1.9-8.7q2-3.9,4.2-3.9c1.6,0,2.4,1.4,2.4,4.1h1.7v-7l-1.8-.4a6.1,6.1,0,0,0-3.9,1.7,32.3,32.3,0,0,0-4.2,5.7V85.3h-1l-6,2.4m-6.8-9-4.8,1.9v3.5a3.8,3.8,0,0,1-.8,2.8,4.4,4.4,0,0,1-2.9.8v1h3.5v15.6a4.2,4.2,0,0,0,.6,2.5,1.7,1.7,0,0,0,1.6.9c1.6,0,3.6-1.2,6.3-3.6v-1.3l-.4.3c-1.5,1.2-2.6,1.8-3.4,1.8a1.6,1.6,0,0,1-.9-.3,3.1,3.1,0,0,1-.2-1.1V88.7h5.6v-1H187a4.9,4.9,0,0,1-2.3-.5,2.8,2.8,0,0,1-1.1-1.3,6.1,6.1,0,0,1-.4-2.8c0-1.9.5-3,1.5-3.2V78.7M159.1,94.9V93.6H174a9.5,9.5,0,0,0-2.2-5.9,6.6,6.6,0,0,0-5.4-2.4c-2.8,0-5.2,1.3-7.3,3.8a12.9,12.9,0,0,0-3.1,8.5,10.2,10.2,0,0,0,2.6,7.1,7.9,7.9,0,0,0,6.1,3c3.2,0,6.5-2.2,10-6.5V99.7q-4.2,4.8-8.1,4.8a6.8,6.8,0,0,1-5.4-2.7,11.1,11.1,0,0,1-2.1-6.9m.2-2.4a7.2,7.2,0,0,1,2-4.1,5.2,5.2,0,0,1,3.8-1.6,4.6,4.6,0,0,1,3.4,1.5,7.3,7.3,0,0,1,1.7,4.2H159.3m-8.7-3.1a4,4,0,0,0-1-3,3.6,3.6,0,0,0-2.8-1.2,6.4,6.4,0,0,0-3.5,1.2,30.4,30.4,0,0,0-5.4,5.7V90.6a7.2,7.2,0,0,0-.9-4,3.2,3.2,0,0,0-2.8-1.3,6.5,6.5,0,0,0-3.6,1.2,26.5,26.5,0,0,0-5.3,5.8v-7h-1.1l-5.9,2.4v1.1a7.1,7.1,0,0,1,2-.5c1,0,1.5.6,1.5,1.9v12.1a3.8,3.8,0,0,1-.8,2.7c-.5.6-1.4.8-2.7.9V107h10.5v-1.1a3.5,3.5,0,0,1-2.9-1.1c-.6-.7-.8-2-.8-3.9a19.1,19.1,0,0,1,2.1-9.1c1.5-2.6,3.1-3.9,4.9-3.9a2.1,2.1,0,0,1,1.7.8,3.8,3.8,0,0,1,.6,2.2V105a.8.8,0,0,1-.9.9V107h7.9v-1.1a3.7,3.7,0,0,1-2.9-1.2q-.9-1-.9-3.9a18.7,18.7,0,0,1,2.2-9c1.5-2.6,3.1-3.9,4.9-3.9a2,2,0,0,1,1.8.9,5.1,5.1,0,0,1,.6,2.8v13.2c0,.7-.3,1.1-1,1.1V107h8v-1.1a4.2,4.2,0,0,1-2.6-.8,3.6,3.6,0,0,1-.9-2.8Z" transform="translate(-0.2)"/><path d="M74.1,86.7h1.1s1.5-2,.2-2H74.1C72.9,84.5,74.1,86.7,74.1,86.7Z" transform="translate(-0.2)"/></svg>