<svg version="1.1" id="Layer_1" xmlns="http://www.w3.org/2000/svg" xmlns:xlink="http://www.w3.org/1999/xlink" x="0px" y="0px"viewBox="0 0 644 594" style="enable-background:new 0 0 644 594;" xml:space="preserve"> <style type="text/css"> .st0{fill:none;stroke:#000000;stroke-miterlimit:10;} .st1{fill:url(#SVGID_1_);} .st2{fill:url(#SVGID_2_);} .st3{fill:url(#SVGID_3_);} </style> <g> <g> <rect x="301.5" y="109.4" class="st0" width="51.1" height="17.1"/> </g> </g> <path class="st0" d="M582.9,159.5c-0.2-2.2-1.5-4.2-3.2-5.7L468.8,68.5c-1.5-1.1-3.4-1.7-5.2-1.7h-59.8c-1,0-1.9,0.1-2.7,0.5 c-47.8,16-100.3,16-148.1,0l0,0c-0.9-0.2-1.7-0.5-2.7-0.5h-59.8c-1.9,0-3.7,0.6-5.2,1.7l-111,85.3c-1.7,1.4-3,3.4-3.2,5.7 c-0.2,2.2,0.4,4.5,1.7,6.4l59.8,76.8c2.9,3.6,8.1,4.4,11.7,1.6l37.7-27.6V502c0,4.7,3.9,8.5,8.5,8.5h273.1c4.7,0,8.5-3.9,8.5-8.5 V216.7l37.5,27.6c3.7,2.7,9,2,11.7-1.6l59.8-76.8C582.6,164,583.3,161.8,582.9,159.5z M327,96.2c22.7,0,45.3-3,67.2-9.1 c-5.6,32.1-33.6,56.4-67.2,56.4s-61.6-24.5-67.2-56.4C281.8,93.2,304.3,96.2,327,96.2z M513.2,225.5l-44.5-32.7 c-2.6-1.9-6-2.1-8.9-0.7c-2.9,1.5-4.6,4.4-4.6,7.6v293.5H199V199.8c0-3.2-1.7-6.1-4.6-7.6c-2.9-1.5-6.4-1.1-8.9,0.7L141,225.5 L91.6,162l101.8-78.3h48.8c4.2,43,40.8,76.8,85,76.8s80.6-33.7,85-76.8H461L562.7,162L513.2,225.5z"/> <radialGradient id="SVGID_1_" cx="325.4606" cy="1065.8326" r="81.951" gradientTransform="matrix(1 -3.000000e-02 -3.000000e-02 -1.03 62.95 1443.9)" gradientUnits="userSpaceOnUse"> <stop  offset="0" style="stop-color:#EFC05A"/> <stop  offset="0.25" style="stop-color:#E9D97D"/> <stop  offset="0.49" style="stop-color:#EA9C3A"/> <stop  offset="1" style="stop-color:#000000"/> </radialGradient> <path class="st1" d="M437.8,326.4v-1.6l-18.6,0.3l0.1,1.6c-0.7,3-1.5,5.1-2.5,6.2s-2.3,2-3.7,2.7c-1.5,0.7-3.5,1.2-6.2,1.6 s-5.4,0.5-8,0.5c-2.7,0-5.2-0.1-7.5-0.2s-5.6-0.3-10-0.7c-6.7-0.6-17.6-2.3-32.6-5s-28.1-3.5-39.1-2.4c-10.8,1.2-18.5,3.1-23.1,5.6 l-10.9,14.6c0.9-0.3,2-0.9,3.1-1.7c2.9-2.2,6.9-4.1,11.8-5.9c4.9-1.8,9.8-3.3,14.5-4.7c17.1-5,34.1-5.7,50.9-2.2 c16.9,3.5,26.4,5.5,28.7,6c2.3,0.4,5.1,0.9,8.6,1.4c3.4,0.4,6.3,0.7,8.6,0.8c2.3,0.1,4,0.1,5.1,0.1c1.3-0.1,2.5-0.2,3.7-0.4 c1.4-0.2,2.6-0.4,3.7-0.7c1.4-0.3,2.8-0.8,4.1-1.3c1.8-0.7,3.6-1.7,5.2-2.8c1.8-1.2,5.3-4.5,10.6-9.8 C435.5,327,436.6,326.4,437.8,326.4z"/> <radialGradient id="SVGID_2_" cx="542.93" cy="194.0804" r="87.5322" gradientTransform="matrix(1 0 0 0.87 -267.13 109.35)" gradientUnits="userSpaceOnUse"> <stop  offset="0" style="stop-color:#EFC05A"/> <stop  offset="0.25" style="stop-color:#E9D97D"/> <stop  offset="0.49" style="stop-color:#EA9C3A"/> <stop  offset="1" style="stop-color:#000000"/> </radialGradient> <path class="st2" d="M336.9,278.2l-61.1-71.4l-61.1,71.4l61.1,71.4L336.9,278.2 M275.8,211.1l57.4,67l-57.3,67l-57.4-67L275.8,211.1 z"/> <path d="M269.8,273.5l5,14.3c0.1,0.3,0.2,0.6,0.2,0.9c0,0.9-0.2,1.4-0.7,1.4h-0.9v2h14.9v-2c-1.9-0.1-3.4-1.1-4.7-3.1 s-2.5-4.6-3.6-7.7l-14.6-42.2H263l-17,43.1c-2.5,6.4-5.4,9.7-8.5,9.8v2H256v-2h-2.2c-1.5,0-2.6-0.4-3.5-1.3s-1.3-2-1.3-3.4 c0-2.6,0.9-6.6,2.8-11.9h18 M252.7,270.9l8.6-22l7.6,22H252.7z"/> <radialGradient id="SVGID_3_" cx="207.7955" cy="1349.8177" r="55.1438" gradientTransform="matrix(-0.39 0.92 0.84 0.43 -758.65 -517.03)" gradientUnits="userSpaceOnUse"> <stop  offset="0.22" style="stop-color:#7C4A00"/> <stop  offset="0.44" style="stop-color:#E9D97D"/> <stop  offset="0.56" style="stop-color:#EA9C3A"/> <stop  offset="1" style="stop-color:#000000"/> </radialGradient> <path class="st3" d="M298.5,274.8h2.6V263c-4.8-1.6-9.2-2.4-13-2.4c-4.9,0-9.3,1.2-13.2,3.7c-3.9,2.4-7,5.9-9.4,10.3 c-2.4,4.4-3.6,9.4-3.6,14.9c0,4.4,0.8,8.3,2.4,11.7c1.6,3.5,3.8,6.3,6.8,8.4s6.1,3.1,9.2,3.1c2.8,0,5.9-1,9.1-2.9 c0.4-0.3,0.9-0.6,1.4-1.1c1.9-1.4,3.6-2.1,4.9-2.1c3.1,0,4.7,2.3,4.8,6.8h1.8v-16c0-1.5,0.3-2.8,1-3.8c0.6-1,1.5-1.5,2.6-1.5v-1.9 h-17.8v2l1.2-0.1c4.5,0,6.8,1.9,6.8,5.8c0,2.7-1.1,5-3.2,7c-2.1,1.9-4.7,2.9-7.8,2.9c-4.7,0-8.8-2.3-12.2-6.8 c-3.3-4.6-5-10.3-5-17.1c0-6.4,1.6-11.4,4.9-15.1c3.3-3.6,7.3-5.5,11.9-5.5c3.5,0,6.6,1,9.2,3C296.6,268.2,298.1,271.1,298.5,274.8z "/> <path d="M328.9,300.6c0-3-0.8-5.3-2.5-7.1c-1.7-1.8-4-2.7-6.9-2.7c-2.8,0-5.4,1.2-7.8,3.5c-2.4,2.3-3.6,5.2-3.6,8.7 c0,2.9,0.8,5.3,2.5,7.1c1.7,1.8,3.9,2.7,6.8,2.7s5.5-1.1,7.9-3.4C327.7,307.1,328.9,304.1,328.9,300.6 M317.5,292.6 c1.2,0,2.4,0.4,3.6,1.2c1.2,0.8,2.3,2,3.2,3.7c0.9,1.7,1.4,3.5,1.4,5.6c0,2.3-0.6,4.1-1.8,5.5s-2.6,2.1-4.3,2.1 c-2.3,0-4.3-1.1-6-3.2c-1.7-2-2.6-4.6-2.6-7.3c0-2.2,0.5-4,1.6-5.5C313.9,293.3,315.5,292.6,317.5,292.6 M424.3,299.6 c0.2-2.2,0.9-4,2.1-5.4c1.1-1.5,2.5-2.2,4-2.2c0.9,0,1.6,0.3,2.1,0.8c0.5,0.6,0.8,1.3,0.8,2.1v2.7c-8.4,3.8-12.6,7.3-12.6,10.6 c0,1.2,0.4,2.4,1.2,3.2c0.8,0.9,1.8,1.3,2.9,1.3s2.4-0.4,3.7-1.3c1.3-0.9,2.9-2.3,4.8-4.2v3.4c0,1.5,0.6,2.2,1.9,2.2 c1.5,0,3.3-1.1,5.6-3.4V308c-1.5,1.4-2.6,2.1-3.2,2.1s-0.9-0.3-0.9-1V295c0-1.5-0.3-2.6-0.9-3.2c-0.6-0.6-1.7-1-3.1-1 c-3.1,0-6.3,1.1-9.8,3.4v5.4L424.3,299.6 M424,306.7c0-1.5,0.9-2.9,2.6-4.3c1.8-1.4,4-2.4,6.8-3c0,3.2-0.6,5.7-1.8,7.6 c-1.2,1.8-2.7,2.7-4.4,2.7c-0.9,0-1.7-0.3-2.3-0.8C424.3,308.4,424,307.6,424,306.7 M403,293.1v1.1c0.9-0.3,1.6-0.5,2-0.5 c1,0,1.5,0.7,1.5,2v11.7c0,1.3-0.3,2.3-0.8,2.8s-1.4,0.8-2.7,0.8v1.1h11.8V311c-2,0-3.3-0.3-4-0.8c-0.7-0.6-1.1-1.8-1.1-3.7 c0-3.2,0.6-6.1,1.8-8.6c1.2-2.5,2.6-3.8,4.1-3.8c1.6,0,2.4,1.4,2.4,4.1h1.6v-7c-0.6-0.2-1.2-0.3-1.8-0.3c-1.3,0-2.5,0.6-3.8,1.7 c-1.2,1.1-2.6,3-4.1,5.6v-7.4h-1L403,293.1 M396.4,284.3l-4.7,1.9v3.4c0,1.3-0.3,2.2-0.8,2.8c-0.5,0.5-1.5,0.8-2.8,0.8v1h3.4v15.4 c0,1.1,0.2,1.9,0.5,2.5c0.3,0.5,0.9,0.8,1.6,0.8c1.5,0,3.6-1.2,6.1-3.5V308c-0.1,0.1-0.2,0.2-0.4,0.3c-1.5,1.2-2.6,1.8-3.3,1.8 c-0.3,0-0.6-0.1-0.8-0.4c-0.2-0.2-0.3-0.6-0.3-1.1v-14.5h5.5v-1h-1.9c-0.9,0-1.7-0.2-2.2-0.5s-0.9-0.7-1.1-1.3 c-0.2-0.5-0.3-1.4-0.3-2.7c0-1.9,0.5-3,1.4-3.2L396.4,284.3 M371.2,300.2c0-0.3,0-0.7,0-1.3h14.6c-0.1-2.3-0.8-4.2-2.1-5.8 c-1.3-1.6-3.1-2.4-5.3-2.4c-2.8,0-5.2,1.2-7.2,3.7c-2.1,2.5-3.1,5.3-3.1,8.4c0,2.7,0.9,5,2.6,7s3.7,2.9,6,2.9c3.2,0,6.5-2.1,9.8-6.4 v-1.5c-2.7,3.1-5.4,4.7-7.9,4.7c-2.1,0-3.9-0.9-5.3-2.7C371.9,305.2,371.2,302.9,371.2,300.2 M371.4,297.8c0.2-1.6,0.9-2.9,2-4 c1.1-1.1,2.3-1.6,3.7-1.6c1.3,0,2.5,0.5,3.4,1.5s1.5,2.4,1.7,4.1H371.4 M362.8,294.8c0-1.2-0.3-2.2-1-3c-0.7-0.7-1.7-1.1-2.7-1.1 c-1.1,0-2.3,0.4-3.5,1.1c-1.2,0.8-3,2.6-5.3,5.6c0-0.5,0-1,0-1.4c0-1.8-0.3-3.1-0.9-3.9c-0.6-0.9-1.5-1.3-2.8-1.3 c-1.1,0-2.3,0.4-3.5,1.2c-1.2,0.8-3,2.7-5.2,5.8v-6.9h-1.1l-5.8,2.3v1.1c0.8-0.3,1.5-0.5,1.9-0.5c1,0,1.5,0.6,1.5,1.9v11.9 c0,1.3-0.3,2.2-0.8,2.7s-1.4,0.8-2.6,0.8v1.1h10.3V311c-1.3,0-2.3-0.4-2.8-1.1c-0.6-0.7-0.8-2-0.8-3.8c0-3.4,0.7-6.3,2.1-8.9 c1.4-2.6,3-3.8,4.8-3.8c0.6,0,1.2,0.3,1.6,0.8s0.6,1.2,0.6,2.1v13.9c0,0.5-0.3,0.8-1,0.8v1.1h7.8V311c-1.3,0-2.3-0.4-2.8-1.1 c-0.6-0.7-0.9-2-0.9-3.9c0-3.3,0.7-6.3,2.1-8.8c1.4-2.6,3-3.9,4.8-3.9c0.8,0,1.4,0.3,1.8,0.9c0.4,0.6,0.6,1.5,0.6,2.8v13 c0,0.7-0.3,1-1,1.1v1.1h7.9V311c-1.2,0-2.1-0.3-2.6-0.8c-0.6-0.5-0.8-1.4-0.8-2.8L362.8,294.8z"/> <path d="M287.4,292.1h1.1c0,0,1.5-2,0.2-2h-1.3C286.3,290,287.4,292.1,287.4,292.1z"/> <g> <g> <line class="st0" x1="263.4" y1="35" x2="395" y2="35"/> <g> <path d="M263.8,35c1-1,1.5-3.1,1.6-4.5c-1.4,1.9-3.3,3.6-5.5,4.5c2.3,0.9,4,2.7,5.5,4.5C265.2,38,264.8,36.1,263.8,35z"/> </g> <g> <path d="M394.6,35c-1-1-1.5-3.1-1.6-4.5c1.4,1.9,3.3,3.6,5.5,4.5c-2.3,0.9-4,2.7-5.5,4.5C393.1,38,393.5,36.1,394.6,35z"/> </g> </g> </g> <line class="st0" x1="257.9" y1="35.4" x2="257.9" y2="63.2"/> <line class="st0" x1="400.4" y1="35.4" x2="400.4" y2="63.2"/> <g> <g> <line class="st0" x1="187.7" y1="539" x2="466.5" y2="539"/> <g> <path d="M188.1,539c1-1,1.5-3.1,1.6-4.5c-1.4,1.9-3.3,3.6-5.5,4.5c2.3,0.9,4,2.7,5.5,4.5C189.6,542,189.2,540.1,188.1,539z"/> </g> <g> <path d="M466.1,539c-1-1-1.5-3.1-1.6-4.5c1.4,1.9,3.3,3.6,5.5,4.5c-2.3,0.9-4,2.7-5.5,4.5C464.6,542,465,540.1,466.1,539z"/> </g> </g> </g> <line class="st0" x1="181.8" y1="512.3" x2="181.8" y2="540.2"/> <line class="st0" x1="472.5" y1="512.3" x2="472.5" y2="540.2"/> <g> <g> <line class="st0" x1="53.9" y1="74.2" x2="53.9" y2="505.4"/> <g> <path d="M53.9,74.6c1,1,3.1,1.5,4.5,1.6c-1.9-1.4-3.6-3.3-4.5-5.5c-0.9,2.3-2.7,4-4.5,5.5C50.9,76.1,52.8,75.7,53.9,74.6z"/> </g> <g> <path d="M53.9,505c1-1,3.1-1.5,4.5-1.6c-1.9,1.4-3.6,3.3-4.5,5.5c-0.9-2.3-2.7-4-4.5-5.5C50.9,503.5,52.8,503.9,53.9,505z"/> </g> </g> </g> <line class="st0" x1="180.6" y1="67.6" x2="55.6" y2="67.6"/> <line class="st0" x1="173.6" y1="511.4" x2="55.6" y2="511.4"/> <line class="st0" x1="587.4" y1="156.9" x2="608.7" y2="174.9"/> <line class="st0" x1="515.8" y1="248.7" x2="537" y2="266.7"/> <g> <g> <line class="st0" x1="541.1" y1="265.5" x2="608.3" y2="179.1"/> <g> <path d="M541.3,265.2c-0.2-1.5-1.5-3.1-2.6-4c0.6,2.3,0.8,4.8,0.2,7.2c2.1-1.2,4.6-1.5,7-1.6 C544.6,265.9,542.9,265.1,541.3,265.2z"/> </g> <g> <path d="M608,179.4c-1.5,0.2-3.4-0.7-4.6-1.5c2.4,0,4.9-0.4,7-1.6c-0.7,2.3-0.4,4.8,0.2,7.2C609.5,182.4,608.2,181,608,179.4z"/> </g> </g> </g> </svg>