<svg data-name="Layer 1" width="180" height="180" xmlns="http://www.w3.org/2000/svg" viewBox="0 0 358.76 359.33"><path d="M302.53,148.11h76.76V380.25c-1.26.36-159.26.49-162,.11,0-.64-.08-1.32-.08-2q0-31.8,0-63.6,0-9.69,0-19.38c0-.74,0-1.48-.09-2.4-.9.24-1.58.37-2.23.59-4.72,1.6-9.37,3.43-14.16,4.78A116.49,116.49,0,0,1,183.56,302c-3,.38-6,.92-9,1.27a60.59,60.59,0,0,1-6.31.42c-4.46.06-8.93.2-13.39,0-4.19-.21-8.36-.92-12.56-1.28A91.92,91.92,0,0,1,129,300a139.94,139.94,0,0,1-38.55-15.53,142.83,142.83,0,0,1-52.57-53.93,139.25,139.25,0,0,1-13.36-34,134.32,134.32,0,0,1-3.43-19.37c-.37-3.67-.4-7.38-.5-11.07-.08-2.82,0-5.64,0-8.46A119,119,0,0,1,21.9,141.9a133,133,0,0,1,6.47-26.26A139.87,139.87,0,0,1,52.08,73.5,145.73,145.73,0,0,1,65.67,59a141.59,141.59,0,0,1,63-33.86,143.89,143.89,0,0,1,15.57-2.82,133.43,133.43,0,0,1,22-.95c5,.19,9.94.73,14.89,1.27a114.6,114.6,0,0,1,18.41,3.8,141,141,0,0,1,47.72,23.86A143.9,143.9,0,0,1,266.6,68.2a141.7,141.7,0,0,1,30.57,54.09,140.88,140.88,0,0,1,3.82,15.9c.55,3.05.88,6.15,1.31,9.22A5.28,5.28,0,0,0,302.53,148.11Zm-40-.73a53.44,53.44,0,0,0-2.19-11.83,102.74,102.74,0,0,0-35.47-54.09A101.7,101.7,0,0,0,177.93,60.7c-2.48-.39-5-.6-7.5-.83s-5-.51-7.52-.55c-2.75,0-5.51.11-8.26.29-3.15.21-6.32.36-9.43.84a102.88,102.88,0,0,0-36.81,13.32A101,101,0,0,0,89.86,87.94a75.33,75.33,0,0,0-5.56,5.88c-2.53,3-5,6.05-7.31,9.22a86,86,0,0,0-10.27,18.4,123,123,0,0,0-4.54,12.93c-1.22,4.39-2,8.91-2.8,13.41a48.45,48.45,0,0,0-.8,7.69c-.08,4.64.05,9.27.19,13.9A82.36,82.36,0,0,0,61.25,186a104.11,104.11,0,0,0,9,23.82,99,99,0,0,0,14.43,20.75,103.12,103.12,0,0,0,55.87,32,80.23,80.23,0,0,0,18.68,2c4.39-.13,8.81-.07,13.18-.52a97.46,97.46,0,0,0,18.4-3.79,102.72,102.72,0,0,0,24.45-11,1.74,1.74,0,0,0,.93-1.73c0-.58,0-1.17,0-1.76V150.23c0-2.73,0-2.73,2.77-2.73h41.22C260.9,147.49,261.64,147.42,262.5,147.38ZM369.81,158H227.18a1.48,1.48,0,0,0-.21.37,1.86,1.86,0,0,0-.07.52V369.55a6.44,6.44,0,0,0,.1.87.29.29,0,0,0,.09.15.68.68,0,0,0,.12.12c2.59.38,141.36.24,142.6-.15ZM217.11,260a13.82,13.82,0,0,0-1.59.54c-3.16,1.55-6.28,3.19-9.47,4.67a102.17,102.17,0,0,1-16.74,5.85,82.3,82.3,0,0,1-12.73,2.49c-3.61.38-7.22.8-10.83,1-3.17.16-6.34.08-9.51,0a64.9,64.9,0,0,1-6.84-.43c-3.71-.48-7.43-1-11.09-1.75A113.09,113.09,0,0,1,117.7,266a116.07,116.07,0,0,1-13.2-6.6,99.15,99.15,0,0,1-15.39-10.79c-3.58-3.11-6.92-6.51-10.31-9.84A87.72,87.72,0,0,1,69,226.8a113.1,113.1,0,0,1-12.13-22,110.11,110.11,0,0,1-5.31-16.37,83.75,83.75,0,0,1-2.1-11.55c-.32-3.32-.83-6.63-.94-9.95a115.46,115.46,0,0,1,1.26-22.43,119.39,119.39,0,0,1,4.4-18.24A113.11,113.11,0,0,1,77.71,86.24a113.46,113.46,0,0,1,22.64-19.16,115.33,115.33,0,0,1,24-11.66A112.71,112.71,0,0,1,156,49.35a102.36,102.36,0,0,1,21.42,1.1A111.44,111.44,0,0,1,221.59,67,122.65,122.65,0,0,1,236.4,78.29a107.65,107.65,0,0,1,11.89,12.46,110.41,110.41,0,0,1,11,16.11A114.18,114.18,0,0,1,268.51,128a115.93,115.93,0,0,1,4.27,18.86,11.2,11.2,0,0,0,.36,1.23c6.33,0,12.58,0,18.81,0,.3-3.87-.56-7.38-1.26-10.86a130.93,130.93,0,0,0-7.83-25.84A132.87,132.87,0,0,0,272,90.82a116,116,0,0,0-13.72-17.58c-3.26-3.36-6.5-6.78-10-9.88a131.5,131.5,0,0,0-42.69-25,149.25,149.25,0,0,0-18.28-5,102.25,102.25,0,0,0-15.8-2.17,139.2,139.2,0,0,0-21.8.24c-3.78.41-7.56.84-11.31,1.46a119.22,119.22,0,0,0-18.87,4.82A118.52,118.52,0,0,0,98,47.22c-3.14,1.82-6.31,3.63-9.33,5.64A133.11,133.11,0,0,0,72.92,65.22,127.59,127.59,0,0,0,49.7,93.11a129,129,0,0,0-12.23,25.48A123.08,123.08,0,0,0,31,146.28c-.45,4.43-.92,8.88-1,13.32,0,5.33.29,10.67.65,16a79.29,79.29,0,0,0,1.23,9.95,140.85,140.85,0,0,0,6,22.05A130.27,130.27,0,0,0,69,256a134.54,134.54,0,0,0,10.59,9.53A143.1,143.1,0,0,0,98.32,278a129.32,129.32,0,0,0,22.07,9.61,123.38,123.38,0,0,0,17.89,4.54,117.84,117.84,0,0,0,17.47,1.89c5.28.1,10.57,0,15.84-.28,4.2-.23,8.41-.75,12.58-1.37a115.58,115.58,0,0,0,15.76-3.61,119.06,119.06,0,0,0,15.92-6.06,2.15,2.15,0,0,0,1.41-2.31c-.06-6.16,0-12.33,0-18.5C217.23,261.37,217.16,260.8,217.11,260Z" transform="translate(-20.53 -21.26)"/><path d="M129.9,194.93h-4.17a6.08,6.08,0,1,1,0-12.16c1.34,0,2.67,0,4.19,0V180.3q0-33.47,0-66.93a6.77,6.77,0,0,1,1.28-4.63,6.17,6.17,0,0,1,5.08-2.34c2.58,0,5.16,0,7.75,0,8.68,0,17.37,0,26.06,0a38.84,38.84,0,0,1,11.76,1.89,29.23,29.23,0,0,1,14.38,10,27.57,27.57,0,0,1,6,16.59,49.39,49.39,0,0,1-.32,8.43,28.28,28.28,0,0,1-10.49,18.35,30.41,30.41,0,0,1-14.11,6.4,51.1,51.1,0,0,1-8.2.72c-8.34.1-16.67,0-25,0H142c-.21,4.62,0,9.11-.1,13.78.83.05,1.51.12,2.18.12,7.34,0,14.68.07,22,0a6.93,6.93,0,0,1,6,3.85c1.76,3.53-1.52,8.33-5.4,8.34H142.06c0,.71-.11,1.33-.11,1.94,0,3.17,0,6.34,0,9.51A6.43,6.43,0,0,1,140.1,211c-1.67,1.75-3.79,1.9-5.88,1.42a5.28,5.28,0,0,1-4-4.09,11.81,11.81,0,0,1-.33-2.78c0-2.88,0-5.75,0-8.63Zm12.29-77.88c-.38,2.11-.31,39.7.06,41.06.37,0,.77.09,1.17.09h25.73a26.35,26.35,0,0,0,8.31-1.22,17.75,17.75,0,0,0,9.84-7.26,21.21,21.21,0,0,0,3.12-10.14,28.63,28.63,0,0,0-.66-8,16.56,16.56,0,0,0-6.45-10.35,21.45,21.45,0,0,0-12.69-4.08c-9-.14-18,0-27-.06Z" transform="translate(-20.53 -21.26)"/><path d="M355.91,173.94V234.3H241.55c0-.7-.06-1.43-.06-2.17q0-26.68,0-53.37c0-1,0-2,0-3,.05-1.36.44-1.73,1.82-1.82.41,0,.82,0,1.23,0H355.91Zm-9.76,50.61V183.69H254c-.91,0-1.83.1-2.7.15-.35,3.33-.21,39.41.15,40.7Z" transform="translate(-20.53 -21.26)"/><path d="M291,340.55V324.48h16.21v16C305.87,340.85,293,340.9,291,340.55Z" transform="translate(-20.53 -21.26)"/><path d="M348.11,340.68H331.93v-16c1.25-.38,14.18-.46,16.18-.07Z" transform="translate(-20.53 -21.26)"/><path d="M307.21,307.66H291V291.84c1.29-.35,14.18-.42,16.19-.07Z" transform="translate(-20.53 -21.26)"/><path d="M250.06,340.68V324.45H266v16.23Z" transform="translate(-20.53 -21.26)"/><path d="M250,274.84V259.1c1.28-.4,12.43-.54,15.78-.21.42,1.16.53,13.62.13,15.95Z" transform="translate(-20.53 -21.26)"/><path d="M291.28,274.83V258.88h15.94v15.95Z" transform="translate(-20.53 -21.26)"/><path d="M332.16,274.83V258.88h15.95v15.95Z" transform="translate(-20.53 -21.26)"/><path d="M332.15,291.64h15.77c.38,1.32.49,13.16.17,15.79-1.23.39-13.85.48-15.94.09Z" transform="translate(-20.53 -21.26)"/><path d="M265.88,291.48c.05.66.11,1.06.12,1.46,0,4.1,0,8.21,0,12.31,0,2-.4,2.39-2.35,2.4-3.92,0-7.85,0-11.77,0-1.83,0-2-.18-2-2,0-4.22,0-8.43,0-12.65,0-.41,0-.81.1-1.46C255.23,291.45,260.47,291.5,265.88,291.48Z" transform="translate(-20.53 -21.26)"/></svg>